<mxfile host="app.diagrams.net" agent="Mozilla/5.0 (Windows NT 10.0; Win64; x64) AppleWebKit/537.36 (KHTML, like Gecko) Chrome/109.0.0.0 Safari/537.36" version="27.0.3">
  <diagram id="wFE0QG_FPsp0jaGvCLVb" name="Page-1">
    <mxGraphModel dx="1426" dy="769" grid="1" gridSize="10" guides="1" tooltips="1" connect="1" arrows="1" fold="1" page="1" pageScale="1" pageWidth="850" pageHeight="1100" math="0" shadow="0">
      <root>
        <mxCell id="0" />
        <mxCell id="1" parent="0" />
        <mxCell id="alHSipFoMdGwwCc6gNLb-1" value="ChatBI" style="rounded=0;whiteSpace=wrap;html=1;fillColor=#dae8fc;strokeColor=#6c8ebf;" vertex="1" parent="1">
          <mxGeometry x="110" y="130" width="840" height="40" as="geometry" />
        </mxCell>
        <mxCell id="alHSipFoMdGwwCc6gNLb-2" value="后台(苍穹)" style="rounded=1;whiteSpace=wrap;html=1;" vertex="1" parent="1">
          <mxGeometry x="110" y="190" width="440" height="40" as="geometry" />
        </mxCell>
        <mxCell id="alHSipFoMdGwwCc6gNLb-3" value="web/h5" style="rounded=1;whiteSpace=wrap;html=1;" vertex="1" parent="1">
          <mxGeometry x="560" y="190" width="390" height="40" as="geometry" />
        </mxCell>
        <mxCell id="alHSipFoMdGwwCc6gNLb-4" value="业务模块" style="rounded=1;whiteSpace=wrap;html=1;" vertex="1" parent="1">
          <mxGeometry x="110" y="260" width="210" height="60" as="geometry" />
        </mxCell>
        <mxCell id="alHSipFoMdGwwCc6gNLb-5" value="基础服务" style="rounded=1;whiteSpace=wrap;html=1;" vertex="1" parent="1">
          <mxGeometry x="340" y="260" width="210" height="60" as="geometry" />
        </mxCell>
        <mxCell id="alHSipFoMdGwwCc6gNLb-6" value="auth" style="rounded=1;whiteSpace=wrap;html=1;" vertex="1" parent="1">
          <mxGeometry x="340" y="340" width="60" height="60" as="geometry" />
        </mxCell>
        <mxCell id="alHSipFoMdGwwCc6gNLb-7" value="sse" style="rounded=1;whiteSpace=wrap;html=1;" vertex="1" parent="1">
          <mxGeometry x="415" y="340" width="60" height="60" as="geometry" />
        </mxCell>
        <mxCell id="alHSipFoMdGwwCc6gNLb-8" value="config" style="rounded=1;whiteSpace=wrap;html=1;" vertex="1" parent="1">
          <mxGeometry x="490" y="340" width="60" height="60" as="geometry" />
        </mxCell>
      </root>
    </mxGraphModel>
  </diagram>
</mxfile>
